<svg width="24" height="24" viewBox="0 0 24 24" fill="none" xmlns="http://www.w3.org/2000/svg">
<path d="M17.3767 0H6.62299C2.97108 0 0 2.97122 0 6.62313V17.3769C0 21.0289 2.97108 24 6.62299 24H17.3767C21.0289 24 24 21.0288 24 17.3769V6.62313C24.0001 2.97122 21.0289 0 17.3767 0ZM21.8707 17.3769C21.8707 19.8548 19.8548 21.8706 17.3769 21.8706H6.62299C4.14522 21.8707 2.1294 19.8548 2.1294 17.3769V6.62313C2.1294 4.14537 4.14522 2.1294 6.62299 2.1294H17.3767C19.8546 2.1294 21.8706 4.14537 21.8706 6.62313V17.3769H21.8707Z" fill="white"/>
<path d="M12 6.46155C8.94606 6.46155 6.46155 8.94611 6.46155 12.0001C6.46155 15.054 8.94606 17.5385 12 17.5385C15.054 17.5385 17.5385 15.054 17.5385 12.0001C17.5385 8.94611 15.054 6.46155 12 6.46155ZM12 15.6312C9.99773 15.6312 8.3686 14.0023 8.3686 12C8.3686 9.99756 9.9976 8.36852 12 8.36852C14.0024 8.36852 15.6314 9.99756 15.6314 12C15.6314 14.0023 14.0023 15.6312 12 15.6312Z" fill="white"/>
<path d="M18 4.61536C17.6362 4.61536 17.2788 4.76263 17.0219 5.02067C16.7638 5.27745 16.6154 5.63494 16.6154 5.99997C16.6154 6.36387 16.7639 6.72123 17.0219 6.97927C17.2787 7.23606 17.6362 7.38459 18 7.38459C18.365 7.38459 18.7212 7.23606 18.9793 6.97927C19.2373 6.72123 19.3846 6.36375 19.3846 5.99997C19.3846 5.63494 19.2373 5.27745 18.9793 5.02067C18.7225 4.76263 18.365 4.61536 18 4.61536Z" fill="white"/>
</svg>
